<svg width="1132" viewBox="0 0 1132 1597" xmlns:xlink="http://www.w3.org/1999/xlink" xmlns:ev="http://www.w3.org/2001/xml-events" xmlns="http://www.w3.org/2000/svg" height="1597"><style type="text/css"><![CDATA[
.st8 {fill:#000000;font-family:仿宋;font-size:14pt;font-weight:bold}
.st5 {fill:#000000;font-family:仿宋;font-size:16pt;font-weight:bold}
.st7 {fill:#000000;font-family:仿宋;font-size:18pt;font-weight:bold}
.st10 {fill:#4d5f3f;font-family:仿宋;font-size:14pt;font-weight:bold}
.st6 {fill:#4d5f3f;font-family:仿宋;font-size:16pt;font-weight:bold}
.st11 {fill:#4d5f3f;font-family:仿宋;font-size:17pt;font-weight:bold}
.st9 {fill:#4d5f3f;font-family:仿宋;font-size:18pt;font-weight:bold}
.st4 {fill:#ffffff;font-family:Comic Sans MS;font-size:16pt}
.st2 {fill:#ffffff;font-family:Comic Sans MS;font-size:17pt}
.st1 {fill:#ffffff;font-family:Comic Sans MS;font-size:18pt}
.st3 {fill:#ffffff;font-family:Comic Sans MS;font-size:20pt}
]]></style><defs/><g id="page1" transform="translate(5,5)"><rect width="1123" fill="#ffffff" y="0" x="0" stroke="#808080" height="1587"/><g transform="translate(45.08,772.73)"><path id="shape1" fill="none" d="M0,0L1037.4,0L1037.4,188.5L0,188.5L0,0z" stroke-width="3" stroke="#494166"/><path id="shape2" fill="none" d="M0,0L1037.4,0L1037.4,188.5L0,188.5L0,0z" stroke-width="3" stroke="#494166"/><g id="shape3" transform="matrix(0,-1,1,0,-0,188.5)"><path fill="#494166" d="M0,0L188.5,0L188.5,56.7L0,56.7L0,0z" stroke-width="3" stroke="#494166"/><text class="st1"><tspan y="38.3" x="10.3">责任单位整改人</tspan></text></g></g><g transform="translate(44.58,97.53)"><g><path id="shape4" fill="none" d="M0,0L1037.4,0L1037.4,175.4L0,175.4L0,0z" stroke-width="3" stroke="#494166"/><g id="shape5" transform="matrix(0,-1,1,0,0,175.4)"><path fill="#494166" d="M0,0L175.4,0L175.4,56.7L0,56.7L0,0z" stroke-width="3" stroke="#494166"/><text class="st1"><tspan y="38.3" x="64.2">系统</tspan></text></g></g><g transform="translate(0,175.4)"><path id="shape6" fill="none" d="M0,0L1037.4,0L1037.4,160L0,160L0,0z" stroke-width="3" stroke="#494166"/><g id="shape7" transform="matrix(0,-1,1,0,0,160)"><path fill="#494166" d="M0,0L160,0L160,56.7L0,56.7L0,0z" stroke-width="3" stroke="#494166"/><text class="st1"><tspan y="38.3" x="44">测评员</tspan></text></g></g><g transform="translate(0,335.39)"><path id="shape8" fill="none" d="M0,0L1037.4,0L1037.4,160L0,160L0,0z" stroke-width="3" stroke="#494166"/><g id="shape9" transform="matrix(0,-1,1,0,0,160)"><path fill="#494166" d="M0,0L160,0L160,56.7L0,56.7L0,0z" stroke-width="3" stroke="#494166"/><text class="st1"><tspan y="38.3" x="44">管理员</tspan></text></g></g><g transform="translate(0,495.39)"><path id="shape10" fill="none" d="M0,0L1037.4,0L1037.4,180L0,180L0,0z" stroke-width="3" stroke="#494166"/><g id="shape11" transform="matrix(0,-1,1,0,0,180)"><path fill="#494166" d="M0,0L180,0L180,56.7L0,56.7L0,0z" stroke-width="3" stroke="#494166"/><text class="st2"><tspan y="37.3" x="10">主管单位审核人</tspan></text></g></g></g><g transform="translate(44,19.87)"><path fill-opacity="0.2" fill="#494166" d="M2,2L1041,2L1041,80L2,80L2,2z"/><g id="shape12"><path fill="#494166" d="M0,0L1039,0L1039,51.4L0,51.4L0,0z" stroke="#3f3859"/><text class="st3"><tspan y="37.9" x="412.5">服务群众测评系统</tspan></text></g><path id="shape13" fill="#494166" d="M0,0L1039,0L1039,26.5L0,26.5L0,0z" transform="translate(0,51.45)" stroke="#3f3859"/></g><g transform="translate(130.62,105.26)"><g id="shape14"><path fill-opacity="0.2" fill="#e88d70" d="M2,65.3L2,2L123.4,2L123.4,65.3C105,53.2,81.1,53.2,62.7,65.3C44.3,77.3,20.4,77.3,2,65.3z"/><path fill="#e88d70" d="M0,63.3L0,0L121.4,0L121.4,63.3C103,51.2,79.1,51.2,60.7,63.3C42.3,75.3,18.4,75.3,0,63.3z" stroke="#cc7b62"/></g><text class="st4"><tspan y="45.2" x="40.2">开始</tspan></text></g><g transform="translate(257.48,70.54)"><path fill-opacity="0.2" fill="#9d2932" d="M2,2L23.4,2L23.4,29.3L2,29.3L2,2z"/><g id="shape15"><path stroke-dasharray="6,4" fill="none" d="M0,0L21.4,13.6L0,27.3" stroke="#8a232b"/><text class="st2"><tspan y="22.6" x="-54">数据</tspan></text></g><path id="shape16" stroke-dasharray="6,4" fill="none" d="M0,27.3L0,893.5" stroke="#8a232b"/></g><g transform="translate(550.78,70.54)"><path fill-opacity="0.2" fill="#9d2932" d="M2,2L23.4,2L23.4,29.3L2,29.3L2,2z"/><g id="shape17"><path stroke-dasharray="6,4" fill="none" d="M0,0L21.4,13.6L0,27.3" stroke="#8a232b"/><text class="st1"><tspan y="23.6" x="-56">回访</tspan></text></g><path id="shape18" stroke-dasharray="6,4" fill="none" d="M0,27.3L0,893.5" stroke="#8a232b"/></g><g transform="translate(1056.5,70.54)"><path fill-opacity="0.2" fill="#9d2932" d="M2,2L23.4,2L23.4,29.3L2,29.3L2,2z"/><g id="shape19"><path stroke-dasharray="6,4" fill="none" d="M0,0L21.4,13.6L0,27.3" stroke="#8a232b"/><text class="st1"><tspan y="23.6" x="-104">审核整改</tspan></text></g><path id="shape20" stroke-dasharray="6,4" fill="none" d="M0,27.3L0,893.5" stroke="#8a232b"/></g><g transform="translate(137.62,198.08)"><g id="shape21"><path fill-opacity="0.2" fill="#494166" d="M109.2,65.9L109.2,2L2,2L2,65.9L109.2,65.9z"/><path fill="#494166" d="M107.2,63.9L107.2,0L0,0L0,63.9L107.2,63.9z" stroke="#3f3859"/></g><text class="st1"><tspan y="41.9" x="6.1">抽取数据</tspan></text></g><g id="shape22" transform="translate(191.32,168.54)"><path fill="none" d="M0,0L0,17.5C0,19.7,-0,23.3,-0.1,25.5" stroke="#566a47"/><path fill="#566a47" stroke-linecap="round" d="M3,23.6L-0.1,29.5L-3,23.5L3,23.6" stroke-width="1" stroke="#566a47"/></g><g transform="translate(268.19,314.14)"><g id="shape23"><path fill-opacity="0.2" fill="#494166" d="M109.2,65.9L109.2,2L2,2L2,65.9L109.2,65.9z"/><path fill="#494166" d="M107.2,63.9L107.2,0L0,0L0,63.9L107.2,63.9z" stroke="#3f3859"/></g><text class="st1"><tspan y="41.9" x="6.1">进行回访</tspan></text></g><g id="shape24" transform="translate(191.22,261.93)"><path fill="none" d="M0,0L0,77.1C0,81,3.1,84.1,7,84.1L71,84.1" stroke="#566a47"/><path fill="#566a47" stroke-linecap="round" d="M71,81.1L77,84.1L71,87.1L71,81.1" stroke-width="1" stroke="#566a47"/></g><g id="shape25" transform="translate(375.38,346.07)"><path fill="none" d="M0,0L54,0" stroke="#566a47"/><path fill="#566a47" stroke-linecap="round" d="M54,-3L60,0L54,3L54,-3" stroke-width="1" stroke="#566a47"/></g><g transform="translate(435.38,314.14)"><g id="shape26"><path fill-opacity="0.2" fill="#494166" d="M109.2,65.9L109.2,2L2,2L2,65.9L109.2,65.9z"/><path fill="#494166" d="M107.2,63.9L107.2,0L0,0L0,63.9L107.2,63.9z" stroke="#3f3859"/></g><text class="st1"><tspan y="41.9" x="6.1">填写问卷</tspan></text></g><g transform="translate(425.64,463.27)"><g id="shape27"><path fill-opacity="0.2" fill="#d9b612" d="M65.3,77.5L128.7,39.7L65.3,2L2,39.7L65.3,77.5z"/><path fill="#d9b612" d="M63.3,75.5L126.7,37.7L63.3,0L0,37.7L63.3,75.5z" stroke="#bfa00e"/></g><text class="st1"><tspan y="47.7" x="15.3">审核反馈</tspan></text></g><g id="shape28" transform="translate(488.97,378)"><path fill="none" d="M0,0L0,79.3" stroke="#566a47"/><path fill="#566a47" stroke-linecap="round" d="M3,79.3L0,85.3L-3,79.3L3,79.3" stroke-width="1" stroke="#566a47"/><rect width="141" fill="#ffffff" y="8" x="-68.9" height="24"/><text class="st5"><tspan y="28" x="-69">推送至管理员</tspan></text></g><g transform="translate(151,471.97)"><g id="shape29"><path fill-opacity="0.2" fill="#e88d70" d="M2,52.8L2,2L99.4,2L99.4,52.8C84.6,43.1,65.5,43.1,50.7,52.8C35.9,62.5,16.8,62.5,2,52.8z"/><path fill="#e88d70" d="M0,50.8L0,0L97.4,0L97.4,50.8C82.6,41.1,63.5,41.1,48.7,50.8C33.9,60.5,14.8,60.5,0,50.8z" stroke="#cc7b62"/></g><text class="st1"><tspan y="39" x="25.2">结束</tspan></text></g><g id="shape30" transform="translate(425.64,501)"><path fill="none" d="M0,0L-171.2,-0" stroke="#566a47"/><path fill="#566a47" stroke-linecap="round" d="M-171.2,3L-177.2,-0L-171.2,-3L-171.2,3" stroke-width="1" stroke="#566a47"/><rect width="47" fill="#ffffff" y="-12" x="-111.5" height="24"/><text class="st6"><tspan y="8" x="-111.6">驳回</tspan></text></g><g transform="translate(572.81,835.07)"><g id="shape31"><path fill-opacity="0.2" fill="#494166" d="M109.2,65.9L109.2,2L2,2L2,65.9L109.2,65.9z"/><path fill="#494166" d="M107.2,63.9L107.2,0L0,0L0,63.9L107.2,63.9z" stroke="#3f3859"/></g><text class="st1"><tspan y="41.9" x="6.1">进行整改</tspan></text></g><g id="shape32" transform="translate(552.31,501)"><path fill="none" d="M0,0L6.5,0C9.8,0,12.5,2.7,12.5,6L12.5,362C12.5,364.2,14.3,366,16.5,366" stroke="#566a47"/><path fill="#566a47" stroke-linecap="round" d="M14.5,363L20.5,366L14.5,369L14.5,363" stroke-width="1" stroke="#566a47"/><rect width="51.1" fill="#ffffff" y="167.2" x="-12.4" height="27"/><text class="st7"><tspan y="190.2" x="-12.5">推送</tspan></text></g><g id="shape33" transform="matrix(0,1,-1,0,399,550)"><path fill="none" d="M74,0L-30.3,-111M148,69.6L148,0L0,0L0,69.6" stroke="#dd9496"/><text class="st8" transform="matrix(0,-1,1,0,74,74)"><tspan y="-48" x="-105">管理员根据当事人</tspan><tspan y="-26" x="-105">问卷情况对反馈进</tspan><tspan y="-4" x="-105">行审核，推送则下</tspan><tspan y="18" x="-105">发到主管单位和责</tspan><tspan y="40" x="-105">任单位，驳回则结</tspan><tspan y="62" x="-32">束</tspan></text></g><g transform="translate(673.66,643)"><g id="shape34"><path fill-opacity="0.2" fill="#d9b612" d="M65.3,77.5L128.7,39.7L65.3,2L2,39.7L65.3,77.5z"/><path fill="#d9b612" d="M63.3,75.5L126.7,37.7L63.3,0L0,37.7L63.3,75.5z" stroke="#bfa00e"/></g><text class="st1"><tspan y="47.7" x="15.3">审核整改</tspan></text></g><g id="shape35" transform="translate(680,867)"><path fill="none" d="M0,0L50,0C53.9,0,57,-3.1,57,-7L57,-142.5" stroke="#566a47"/><path fill="#566a47" stroke-linecap="round" d="M54,-142.5L57,-148.5L60,-142.5L54,-142.5" stroke-width="1" stroke="#566a47"/><rect width="178.8" fill="#ffffff" y="-59.3" x="-30.4" height="27"/><text class="st9"><tspan y="-36.3" x="-30.5">推送至主管单位</tspan></text></g><g id="shape36" transform="translate(800.34,680.73)"><path fill="none" d="M0,0L25,0C28.9,0,32,3.1,32,7L32,243.2C32,247.1,28.9,250.2,25,250.2L-166.9,250.2C-170.8,250.2,-173.9,247.1,-173.9,243.2L-173.9,224.2" stroke="#566a47"/><path fill="#566a47" stroke-linecap="round" d="M-176.9,224.2L-173.9,218.2L-170.9,224.2L-176.9,224.2" stroke-width="1" stroke="#566a47"/><rect width="51.1" fill="#ffffff" y="214.6" x="7.1" height="27"/><text class="st9"><tspan y="237.6" x="7">驳回</tspan></text></g><g id="shape37" transform="matrix(0,1,-1,0,1058,539)"><path fill="none" d="M85,170L141.7,276.7M170,108.1L170,170L0,170L0,108.1" stroke="#dd9496"/><text class="st10" transform="matrix(0,-1,1,0,85,85)"><tspan y="-59" x="-73">主管单位对下级</tspan><tspan y="-37" x="-73">单位的任务进行</tspan><tspan y="-15" x="-73">审核，通过则推</tspan><tspan y="7" x="-73">送至管理员，驳</tspan><tspan y="29" x="-73">回则打回到责任</tspan><tspan y="51" x="-73">单位，重新进行</tspan><tspan y="73" x="-21">整改</tspan></text></g><g transform="translate(723.33,463.27)"><g id="shape38"><path fill-opacity="0.2" fill="#d9b612" d="M65.3,77.5L128.7,39.7L65.3,2L2,39.7L65.3,77.5z"/><path fill="#d9b612" d="M63.3,75.5L126.7,37.7L63.3,0L0,37.7L63.3,75.5z" stroke="#bfa00e"/></g><text class="st1"><tspan y="47.7" x="15.3">审核整改</tspan></text></g><g id="shape39" transform="translate(737,643)"><path fill="none" d="M0,0L0,-97.3C0,-101.1,3.1,-104.3,7,-104.3L43.7,-104.3" stroke="#566a47"/><path fill="#566a47" stroke-linecap="round" d="M43.7,-107.3L49.7,-104.3L43.7,-101.3L43.7,-107.3" stroke-width="1" stroke="#566a47"/><rect width="51.1" fill="#ffffff" y="-90.5" x="-24.9" height="27"/><text class="st9"><tspan y="-67.5" x="-25">通过</tspan></text></g><g id="shape40" transform="translate(723.33,501)"><path fill="none" d="M0,0L-89.9,0C-93.8,0,-96.9,3.1,-96.9,7L-96.9,328.1" stroke="#566a47"/><path fill="#566a47" stroke-linecap="round" d="M-93.9,328.1L-96.9,334.1L-99.9,328.1L-93.9,328.1" stroke-width="1" stroke="#566a47"/><rect width="51.1" fill="#ffffff" y="-13.5" x="-44.9" height="27"/><text class="st9"><tspan y="9.5" x="-45">驳回</tspan></text></g><g id="shape41" transform="translate(786.66,463.27)"><path fill="none" d="M0,0L0,-174.1C0,-178,-3.1,-181.1,-7,-181.1L-457.9,-181.1C-461.7,-181.1,-464.9,-178,-464.9,-174.1L-464.9,-155.1" stroke="#566a47"/><path fill="#566a47" stroke-linecap="round" d="M-461.9,-155.1L-464.9,-149.1L-467.9,-155.1L-461.9,-155.1" stroke-width="1" stroke="#566a47"/><rect width="51.1" fill="#ffffff" y="-33.5" x="-24.9" height="27"/><text class="st9"><tspan y="-10.5" x="-25">通过</tspan></text></g><g id="shape42" transform="matrix(0,1,-1,0,1058,243)"><path fill="none" d="M107,174.6L258,208M214,111L214,174.6L0,174.6L0,111" stroke="#dd9496"/><text class="st10" transform="matrix(0,-1,1,0,107,107)"><tspan y="-81" x="-53.3">管理员对主管单</tspan><tspan y="-59" x="-53.3">位推送管来的流</tspan><tspan y="-37" x="-53.3">转单进行审核，</tspan><tspan y="-15" x="-53.3">若审核通过则推</tspan><tspan y="7" x="-53.3">送到测评员进行</tspan><tspan y="29" x="-53.3">二次回访，否则</tspan><tspan y="51" x="-53.3">则打回到责任单</tspan><tspan y="73" x="-53.3">位，重新进行整</tspan><tspan y="95" x="9.7">改</tspan></text></g><g id="shape43" transform="matrix(0,1,-1,0,491,113.3)"><path fill="none" d="M60,212.8L116.7,246.2M120,135.3L120,212.8L0,212.8L0,135.3" stroke="#dd9496"/><text class="st11" transform="matrix(0,-1,1,0,60,60)"><tspan y="-30" x="-134.4">系统从10个分县</tspan><tspan y="-4" x="-121.4">局，55个派出</tspan><tspan y="22" x="-140.4">所，8个警种的业</tspan><tspan y="48" x="-121.4">务数据中抽取</tspan></text></g></g></svg>